<svg width="14" height="14" viewBox="0 0 14 14" fill="none" xmlns="http://www.w3.org/2000/svg">
<path d="M13.83 2.21126C13.7228 2.12458 13.5816 2.09111 13.4468 2.11996C13.4427 2.12084 13.0244 2.20877 12.3692 2.20877C11.0489 2.20877 9.09845 1.87161 7.30453 0.265446C7.13114 0.110228 6.86889 0.110228 6.69547 0.265446C4.90161 1.87155 2.95117 2.20874 1.63085 2.20877C0.975465 2.20877 0.557352 2.12084 0.554248 2.12017C0.419148 2.09056 0.278052 2.12376 0.170343 2.21044C0.0626348 2.29709 0 2.4279 0 2.56613C0 6.92695 1.34838 9.61257 2.47955 11.0976C4.02576 13.1276 5.8285 13.851 7 13.851C8.1715 13.851 9.97427 13.1276 11.5204 11.0976C12.6516 9.61257 14 6.92692 14 2.56613C14 2.42826 13.9372 2.29791 13.83 2.21126ZM10.7154 5.73789L6.63259 9.82075C6.54345 9.90989 6.42661 9.95448 6.3098 9.95448C6.19299 9.95448 6.07612 9.90992 5.98701 9.82075L3.6498 7.48354C3.47151 7.30525 3.47151 7.01621 3.6498 6.83793C3.82806 6.65964 4.11713 6.65964 4.29541 6.83793L6.30983 8.85231L10.0699 5.09228C10.2482 4.91402 10.5372 4.91399 10.7155 5.09228C10.8938 5.27057 10.8938 5.55961 10.7154 5.73789Z" fill="white"/>
</svg>
