<svg width="113" height="100" viewBox="0 0 113 100" fill="none" xmlns="http://www.w3.org/2000/svg">
<path d="M78.9118 -11.4555C76.4035 -16.1815 68.6028 -16.1815 66.0945 -11.4555L0.847738 111.392C0.260398 112.493 -0.03078 113.727 0.002575 114.973C0.03593 116.22 0.39268 117.437 1.03807 118.505C1.68345 119.573 2.59546 120.457 3.68523 121.069C4.77499 121.682 6.00535 122.002 7.25642 122H137.75C139 122.003 140.23 121.682 141.319 121.07C142.408 120.458 143.319 119.575 143.964 118.507C144.608 117.44 144.965 116.224 144.997 114.978C145.03 113.732 144.739 112.499 144.151 111.399L78.9118 -11.4555ZM79.7528 100.321H65.2535V85.8684H79.7528V100.321ZM65.2535 71.4158V35.2843H79.7528L79.76 71.4158H65.2535Z" fill="white" fill-opacity="0.05"/>
</svg>
