<svg width="42" height="100" viewBox="0 0 42 100" fill="none" xmlns="http://www.w3.org/2000/svg">
<path d="M50 96.7273V106.909C50 108.288 49.5052 109.481 48.5156 110.489C47.526 111.496 46.3542 112 45 112H5C3.64583 112 2.47396 111.496 1.48438 110.489C0.494792 109.481 0 108.288 0 106.909V96.7273C0 95.3485 0.494792 94.1553 1.48438 93.1477C2.47396 92.1402 3.64583 91.6364 5 91.6364H10V61.0909H5C3.64583 61.0909 2.47396 60.5871 1.48438 59.5795C0.494792 58.572 0 57.3788 0 56V45.8182C0 44.4394 0.494792 43.2462 1.48438 42.2386C2.47396 41.2311 3.64583 40.7273 5 40.7273H35C36.3542 40.7273 37.526 41.2311 38.5156 42.2386C39.5052 43.2462 40 44.4394 40 45.8182V91.6364H45C46.3542 91.6364 47.526 92.1402 48.5156 93.1477C49.5052 94.1553 50 95.3485 50 96.7273ZM40 5.09091V20.3636C40 21.7424 39.5052 22.9356 38.5156 23.9432C37.526 24.9508 36.3542 25.4545 35 25.4545H15C13.6458 25.4545 12.474 24.9508 11.4844 23.9432C10.4948 22.9356 10 21.7424 10 20.3636V5.09091C10 3.71212 10.4948 2.51894 11.4844 1.51136C12.474 0.503788 13.6458 0 15 0H35C36.3542 0 37.526 0.503788 38.5156 1.51136C39.5052 2.51894 40 3.71212 40 5.09091Z" fill="white" fill-opacity="0.05"/>
</svg>
