<svg width="20" height="20" viewBox="0 0 21 21" fill="none" xmlns="http://www.w3.org/2000/svg">
<path d="M6.29995 2.1C5.743 2.1 5.20885 2.32125 4.81503 2.71507C4.4212 3.1089 4.19995 3.64304 4.19995 4.2V16.8C4.19995 17.357 4.4212 17.8911 4.81503 18.2849C5.20885 18.6787 5.743 18.9 6.29995 18.9H16.275C16.4142 18.9 16.5477 18.8447 16.6462 18.7462C16.7446 18.6478 16.8 18.5142 16.8 18.375C16.8 18.2358 16.7446 18.1022 16.6462 18.0038C16.5477 17.9053 16.4142 17.85 16.275 17.85H6.29995C6.02147 17.85 5.7544 17.7394 5.55749 17.5425C5.36058 17.3455 5.24995 17.0785 5.24995 16.8H15.75C16.0284 16.8 16.2955 16.6894 16.4924 16.4925C16.6893 16.2955 16.8 16.0285 16.8 15.75V4.2C16.8 3.64304 16.5787 3.1089 16.1849 2.71507C15.791 2.32125 15.2569 2.1 14.7 2.1H6.29995ZM9.19795 6.72945C9.03391 6.89581 8.93675 7.11666 8.92495 7.35C8.92495 7.48924 8.86964 7.62277 8.77118 7.72123C8.67273 7.81969 8.53919 7.875 8.39995 7.875C8.26071 7.875 8.12718 7.81969 8.02872 7.72123C7.93026 7.62277 7.87495 7.48924 7.87495 7.35C7.87495 6.96675 8.02195 6.43755 8.44195 6.0018C8.87245 5.5545 9.54445 5.25 10.5 5.25C11.4555 5.25 12.1275 5.55345 12.558 6.0018C12.978 6.43755 13.125 6.96675 13.125 7.35C13.125 8.4483 12.3584 8.97435 11.7841 9.25995C11.6486 9.32629 11.5114 9.38896 11.3725 9.4479L11.361 9.45315C11.2474 9.50081 11.1354 9.55193 11.025 9.60645V10.5C11.0251 10.6392 10.9699 10.7728 10.8716 10.8714C10.7732 10.9699 10.6397 11.0254 10.5005 11.0255C10.3612 11.0257 10.2276 10.9705 10.1291 10.8721C10.0305 10.7738 9.97509 10.6403 9.97495 10.501V9.45C9.97495 9.1896 10.1094 9.0027 10.2301 8.88825C10.3446 8.78115 10.4821 8.7045 10.5924 8.64885C10.6995 8.59425 10.8213 8.54175 10.9326 8.4945L10.9557 8.484C11.0796 8.43045 11.1993 8.379 11.3158 8.3202C11.7915 8.0829 12.075 7.8267 12.075 7.35C12.0631 7.11666 11.966 6.89581 11.802 6.72945C11.6025 6.5205 11.2245 6.3 10.5 6.3C9.77545 6.3 9.39745 6.52155 9.19795 6.72945ZM10.5 13.65C10.2911 13.65 10.0908 13.567 9.9431 13.4193C9.79542 13.2717 9.71245 13.0714 9.71245 12.8625C9.71245 12.6536 9.79542 12.4533 9.9431 12.3057C10.0908 12.158 10.2911 12.075 10.5 12.075C10.7088 12.075 10.9091 12.158 11.0568 12.3057C11.2045 12.4533 11.2875 12.6536 11.2875 12.8625C11.2875 13.0714 11.2045 13.2717 11.0568 13.4193C10.9091 13.567 10.7088 13.65 10.5 13.65Z" fill="white"/>
</svg>
