<svg width="102" height="100" viewBox="0 0 102 100" fill="none" xmlns="http://www.w3.org/2000/svg">
<path d="M65 -8.61539C29.1923 -8.61539 0.384617 20.1923 0.384617 56C0.384617 91.8077 29.1923 120.615 65 120.615C100.808 120.615 129.615 91.8077 129.615 56C129.615 20.1923 100.808 -8.61539 65 -8.61539ZM101.077 39.8462L59.8846 81.5769C58.2692 83.1923 55.5769 83.1923 53.9615 81.5769L31.3462 58.6923C29.7308 57.0769 29.7308 54.3846 31.3462 52.7692L37.2692 46.8462C38.8846 45.2308 41.5769 45.2308 43.1923 46.8462L55.0385 58.9615C56.1154 60.0385 58 60.0385 59.0769 58.9615L89.2308 27.7308C90.8462 26.1154 93.5385 26.1154 95.1539 27.7308L101.077 33.6538C102.962 35.2692 102.962 37.9615 101.077 39.8462Z" fill="white" fill-opacity="0.05"/>
</svg>
