<svg width="129" height="100" viewBox="0 0 129 100" fill="none" xmlns="http://www.w3.org/2000/svg">
<g filter="url(#filter0_di_32_50)">
<path d="M38.5 23.4231C29.0366 23.4231 21.4231 31.0366 21.4231 40.5C21.4231 49.9635 29.0366 57.5769 38.5 57.5769C47.9635 57.5769 55.5769 49.9635 55.5769 40.5C55.5769 31.0366 47.9635 23.4231 38.5 23.4231ZM48.0346 36.2308L37.1481 47.2596C36.7212 47.6866 36.0096 47.6866 35.5827 47.2596L29.6058 41.2116C29.1789 40.7846 29.1789 40.0731 29.6058 39.6462L31.1712 38.0808C31.5981 37.6539 32.3096 37.6539 32.7366 38.0808L35.8673 41.2827C36.1519 41.5673 36.65 41.5673 36.9346 41.2827L44.9039 33.0289C45.3308 32.6019 46.0423 32.6019 46.4693 33.0289L48.0346 34.5943C48.5327 35.0212 48.5327 35.7327 48.0346 36.2308Z" fill="#39FFA0"/>
</g>
<defs>
<filter id="filter0_di_32_50" x="-51.5769" y="-51.5769" width="180.154" height="180.154" filterUnits="userSpaceOnUse" color-interpolation-filters="sRGB">
<feFlood flood-opacity="0" result="BackgroundImageFix"/>
<feColorMatrix in="SourceAlpha" type="matrix" values="0 0 0 0 0 0 0 0 0 0 0 0 0 0 0 0 0 0 127 0" result="hardAlpha"/>
<feOffset dy="-2"/>
<feGaussianBlur stdDeviation="36.5"/>
<feComposite in2="hardAlpha" operator="out"/>
<feColorMatrix type="matrix" values="0 0 0 0 0.223529 0 0 0 0 1 0 0 0 0 0.627451 0 0 0 0.5 0"/>
<feBlend mode="normal" in2="BackgroundImageFix" result="effect1_dropShadow_32_50"/>
<feBlend mode="normal" in="SourceGraphic" in2="effect1_dropShadow_32_50" result="shape"/>
<feColorMatrix in="SourceAlpha" type="matrix" values="0 0 0 0 0 0 0 0 0 0 0 0 0 0 0 0 0 0 127 0" result="hardAlpha"/>
<feOffset dy="4"/>
<feGaussianBlur stdDeviation="2"/>
<feComposite in2="hardAlpha" operator="arithmetic" k2="-1" k3="1"/>
<feColorMatrix type="matrix" values="0 0 0 0 0 0 0 0 0 0 0 0 0 0 0 0 0 0 0.25 0"/>
<feBlend mode="normal" in2="shape" result="effect2_innerShadow_32_50"/>
</filter>
</defs>
</svg>
